Coordinates
version=1
nRows=12
nColumns=24
inDegrees=yes

Units are S.I. units (second, meters, Newtons, ...)
Angles are in degrees.

endheader
time	pelvis_tilt	pelvis_list	pelvis_rotation	pelvis_tx	pelvis_ty	pelvis_tz	hip_flexion_r	hip_adduction_r	hip_rotation_r	knee_angle_r	ankle_angle_r	subtalar_angle_r	mtp_angle_r	hip_flexion_l	hip_adduction_l	hip_rotation_l	knee_angle_l	ankle_angle_l	subtalar_angle_l	mtp_angle_l	lumbar_extension	lumbar_bending	lumbar_rotation
     13.81000000	    -25.31510919	      1.56250061	     -0.50410933	      0.06194233	      0.63376701	     -0.00121858	     82.40125343	    -11.96388219	     -3.55654713	    -96.09013021	     38.66479748	      8.29135833	      0.00000000	     84.62248312	     -9.67975166	     -5.07283640	    -93.21852621	     37.12440956	      7.78977913	      0.00000000	    -21.17576735	      1.25195465	      1.13281078
     13.82000000	    -25.81592395	      1.55006075	     -0.51497019	      0.06007541	      0.62819942	     -0.00129113	     83.61073974	    -11.96709795	     -3.45268162	    -96.93311665	     38.78212844	      8.27423457	      0.00000000	     85.88195322	     -9.73555348	     -4.94409139	    -94.06952467	     37.24369815	      7.73810939	      0.00000000	    -21.21277826	      1.23064243	      0.99076280
     13.83000000	    -26.33584648	      1.56923704	     -0.55829428	      0.05823272	      0.62255859	     -0.00137815	     84.84722132	    -11.94014652	     -3.30704664	    -97.76972054	     38.87249809	      8.25262783	      0.00000000	     87.14560454	     -9.80424598	     -4.84188556	    -94.91741885	     37.36973221	      7.70744571	      0.00000000	    -21.22898151	      1.17994036	      0.88804398
     13.84000000	    -26.83717067	      1.59085289	     -0.58834022	      0.05650620	      0.61726369	     -0.00153082	     86.02542467	    -11.93689631	     -3.16936555	    -98.53692075	     38.95332053	      8.23836015	      0.00000000	     88.33991056	     -9.85479856	     -4.75799623	    -95.69379218	     37.46777408	      7.65197895	      0.00000000	    -21.25333406	      1.14598679	      0.78883625
     13.85000000	    -27.30071051	      1.62352967	     -0.61213847	      0.05480045	      0.61205827	     -0.00168408	     87.16607176	    -11.93659362	     -3.02406912	    -99.30190537	     39.01936641	      8.20577094	      0.00000000	     89.48891724	     -9.87391144	     -4.67106840	    -96.46504337	     37.57504089	      7.55552576	      0.00000000	    -21.30827728	      1.09958789	      0.69054912
     13.86000000	    -27.75080690	      1.60494486	     -0.60938467	      0.05316330	      0.60695725	     -0.00182578	     88.25024792	    -11.94546952	     -2.93850025	   -100.03650314	     39.07630110	      8.15311848	      0.00000000	     90.62436895	     -9.86324725	     -4.52221886	    -97.21950739	     37.67632795	      7.45726612	      0.00000000	    -21.35109967	      1.10651879	      0.58273259
     13.87000000	    -28.23218082	      1.69370491	     -0.56648929	      0.05151291	      0.60183443	     -0.00227489	     89.40699099	    -12.05987565	     -2.75457422	   -100.77715213	     39.12902655	      8.17664071	      0.00000000	     91.75763670	     -9.72684893	     -4.46613055	    -97.93418136	     37.69636385	      7.24463380	      0.00000000	    -21.29568976	      1.01063494	      0.30150859
     13.88000000	    -28.63032401	      1.62401051	     -0.47266335	      0.05002757	      0.59716339	     -0.00269190	     90.36999033	    -12.20047973	     -2.75095003	   -101.45491711	     39.21118043	      8.17643874	      0.00000000	     92.81514311	     -9.59155123	     -4.27645885	    -98.61186012	     37.74386218	      7.10363723	      0.00000000	    -21.38146137	      1.13937263	      0.15736168
     13.89000000	    -29.00163371	      1.56363277	     -0.37030897	      0.04852448	      0.59245599	     -0.00312015	     91.31741188	    -12.35670405	     -2.73359131	   -102.14662846	     39.29050697	      8.17394831	      0.00000000	     93.84470969	     -9.44008331	     -4.10196794	    -99.29025539	     37.78844957	      6.94100775	      0.00000000	    -21.49684331	      1.26366722	     -0.01120086
     13.90000000	    -29.32641750	      1.49283988	     -0.28063548	      0.04706273	      0.58783056	     -0.00345763	     92.19930553	    -12.47782033	     -2.72211333	   -102.82951096	     39.37819371	      8.14875157	      0.00000000	     94.81805046	     -9.31604813	     -3.93052273	    -99.96279987	     37.84409991	      6.82650355	      0.00000000	    -21.65150610	      1.39118512	     -0.12340489
     13.91000000	    -29.59117669	      1.44138234	     -0.21805222	      0.04576230	      0.58358018	     -0.00379105	     92.99181040	    -12.59022318	     -2.69865889	   -103.46479498	     39.45410317	      8.14828752	      0.00000000	     95.68363160	     -9.22317737	     -3.79913190	   -100.58831745	     37.90663615	      6.68385503	      0.00000000	    -21.86637670	      1.49024971	     -0.23854694
     13.92000000	    -29.82750994	      1.40638263	     -0.21459101	      0.04452060	      0.57941882	     -0.00403716	     93.75000330	    -12.64309387	     -2.66448563	   -104.07509332	     39.53269263	      8.13210268	      0.00000000	     96.50677438	     -9.22013954	     -3.70822205	   -101.21796936	     37.97133099	      6.57283233	      0.00000000	    -22.10056514	      1.55663390	     -0.28872240
